<svg width="13" height="30" viewBox="0 0 13 30" fill="none" xmlns="http://www.w3.org/2000/svg">
<path d="M6.29738 30C6.06414 30 5.84548 29.9633 5.6414 29.8898C5.43732 29.8175 5.24781 29.6939 5.07289 29.5189L0.481051 24.9271C0.160351 24.6064 0 24.2128 0 23.7464C0 23.2799 0.174927 22.8717 0.524782 22.5219C0.845481 22.2012 1.25364 22.0408 1.74927 22.0408C2.2449 22.0408 2.65306 22.2012 2.97376 22.5219L4.54811 24.0962V5.90379L2.93003 7.52187C2.60933 7.84257 2.21574 8.00291 1.74927 8.00291C1.2828 8.00291 0.874636 7.82799 0.524782 7.47813C0.204082 7.15743 0.0437328 6.74927 0.0437328 6.25364C0.0437328 5.75802 0.204082 5.34985 0.524782 5.02915L5.07289 0.48105C5.24781 0.306123 5.43732 0.181924 5.6414 0.108455C5.84548 0.0361517 6.06414 0 6.29738 0C6.53061 0 6.74927 0.0361517 6.95335 0.108455C7.15743 0.181924 7.34694 0.306123 7.52187 0.48105L12.1137 5.07289C12.4344 5.39359 12.5948 5.78717 12.5948 6.25364C12.5948 6.72012 12.4198 7.12828 12.07 7.47813C11.7493 7.79883 11.3411 7.95918 10.8455 7.95918C10.3499 7.95918 9.94169 7.79883 9.62099 7.47813L8.04665 5.90379V24.0962L9.66472 22.4781C9.98542 22.1574 10.379 21.9971 10.8455 21.9971C11.312 21.9971 11.7201 22.172 12.07 22.5219C12.3907 22.8426 12.551 23.2507 12.551 23.7464C12.551 24.242 12.3907 24.6501 12.07 24.9708L7.52187 29.5189C7.34694 29.6939 7.15743 29.8175 6.95335 29.8898C6.74927 29.9633 6.53061 30 6.29738 30Z" fill="#32700C"/>
</svg>
