<svg width="30" height="31" viewBox="0 0 30 31" fill="none" xmlns="http://www.w3.org/2000/svg">
<path d="M10.5943 26.2286C8.21714 25.1314 6.27977 23.4743 4.78217 21.2571C3.28549 19.04 2.53714 16.5371 2.53714 13.7486C2.53714 13.1543 2.57143 12.5714 2.64 12C2.70857 11.4286 2.81143 10.8686 2.94857 10.32L1.37143 11.2457L0 8.88L6.54857 5.10857L10.32 11.6229L7.92 12.9943L6.06857 9.77143C5.81714 10.3886 5.6288 11.0286 5.50354 11.6914C5.37737 12.3543 5.31429 13.04 5.31429 13.7486C5.31429 15.9657 5.92 17.9831 7.13143 19.8007C8.34286 21.6174 9.95429 22.96 11.9657 23.8286L10.5943 26.2286ZM21.0857 9.6V6.85714H24.8229C23.7714 5.55429 22.5029 4.54263 21.0171 3.82217C19.5314 3.10263 17.9543 2.74286 16.2857 2.74286C15.0286 2.74286 13.84 2.93714 12.72 3.32571C11.6 3.71429 10.5714 4.26286 9.63429 4.97143L8.26286 2.57143C9.40571 1.77143 10.6459 1.14286 11.9835 0.685714C13.3202 0.228571 14.7429 0 16.2514 0C18.0571 0 19.7883 0.336914 21.445 1.01074C23.1026 1.68549 24.5829 2.66286 25.8857 3.94286V2.05714H28.6286V9.6H21.0857ZM20.1943 30.1714L13.6457 26.4L17.4171 19.8857L19.7829 21.2571L17.8286 24.6171C20.5257 24.2286 22.7717 23.0112 24.5664 20.965C26.3602 18.9198 27.2571 16.5143 27.2571 13.7486C27.2571 13.4971 27.2517 13.2571 27.2407 13.0286C27.2288 12.8 27.2 12.5714 27.1543 12.3429H29.9314C29.9543 12.5714 29.9717 12.7945 29.9835 13.0121C29.9945 13.2288 30 13.4629 30 13.7143C30 16.8 29.0802 19.5602 27.2407 21.995C25.4002 24.4288 23.0057 26.0686 20.0571 26.9143L21.5657 27.8057L20.1943 30.1714Z" fill="#32700C"/>
</svg>
