<svg width="21" height="21" viewBox="0 0 21 21" fill="none" xmlns="http://www.w3.org/2000/svg">
<path d="M5.81901 20.5435C5.33407 20.9213 4.83859 20.9318 4.33258 20.575C3.82656 20.2182 3.65788 19.7459 3.82656 19.1582L5.62925 13.3338L1.04346 10.0911C0.537438 9.73424 0.384789 9.26199 0.58551 8.67431C0.785387 8.08662 1.19105 7.79277 1.80248 7.79277H7.46357L9.29788 1.74798C9.4033 1.45413 9.56691 1.22829 9.78872 1.07046C10.0097 0.91346 10.2467 0.834961 10.4997 0.834961C10.7527 0.834961 10.9897 0.91346 11.2106 1.07046C11.4324 1.22829 11.596 1.45413 11.7015 1.74798L13.5358 7.79277H19.1969C19.8083 7.79277 20.2144 8.08662 20.4151 8.67431C20.615 9.26199 20.4619 9.73424 19.9559 10.0911L15.3701 13.3338L17.1728 19.1582C17.3415 19.7459 17.1728 20.2182 16.6668 20.575C16.1608 20.9318 15.6653 20.9213 15.1803 20.5435L10.4997 16.9859L5.81901 20.5435Z" fill="#32700C"/>
</svg>
