<svg width="30" height="14" viewBox="0 0 30 14" fill="none" xmlns="http://www.w3.org/2000/svg">
<path d="M-1.19803e-06 7.00001C-1.18783e-06 6.76678 0.0367364 6.54812 0.110206 6.34403C0.182509 6.13995 0.306124 5.95045 0.481051 5.77552L5.07289 1.18369C5.39359 0.862986 5.78717 0.702636 6.25365 0.702636C6.72012 0.702636 7.12828 0.877563 7.47814 1.22742C7.79884 1.54812 7.95919 1.95628 7.95919 2.45191C7.95919 2.94753 7.79884 3.3557 7.47814 3.6764L5.90379 5.25074L24.0962 5.25074L22.4781 3.63267C22.1574 3.31197 21.9971 2.91838 21.9971 2.45191C21.9971 1.98544 22.172 1.57727 22.5219 1.22742C22.8426 0.906718 23.2507 0.746369 23.7464 0.746369C24.242 0.746369 24.6501 0.906718 24.9708 1.22742L29.519 5.77552C29.6939 5.95045 29.8181 6.13995 29.8915 6.34404C29.9638 6.54812 30 6.76678 30 7.00001C30 7.23325 29.9638 7.45191 29.8915 7.65599C29.8181 7.86007 29.6939 8.04957 29.5189 8.2245L24.9271 12.8163C24.6064 13.137 24.2128 13.2974 23.7464 13.2974C23.2799 13.2974 22.8717 13.1225 22.5219 12.7726C22.2012 12.4519 22.0408 12.0437 22.0408 11.5481C22.0408 11.0525 22.2012 10.6443 22.5219 10.3236L24.0962 8.74928L5.90379 8.74928L7.52187 10.3674C7.84257 10.6881 8.00292 11.0816 8.00292 11.5481C8.00292 12.0146 7.82799 12.4228 7.47814 12.7726C7.15744 13.0933 6.74927 13.2537 6.25365 13.2537C5.75802 13.2537 5.34985 13.0933 5.02915 12.7726L0.481051 8.2245C0.306124 8.04957 0.182509 7.86007 0.110206 7.65599C0.0367363 7.45191 -1.20822e-06 7.23325 -1.19803e-06 7.00001Z" fill="#32700C"/>
</svg>
