<svg width="420" height="214" viewBox="0 0 420 214" fill="none" xmlns="http://www.w3.org/2000/svg">
<path fill-rule="evenodd" clip-rule="evenodd" d="M70.9067 204.643C73.1197 209.558 77.3499 214 82.7403 214L95.35 214C100.74 214 104.971 209.558 107.184 204.643C111.001 196.164 119.42 190.274 129.192 190.274C138.964 190.274 147.382 196.164 151.2 204.643C153.413 209.558 157.643 214 163.033 214L175.647 214C181.037 214 185.267 209.558 187.48 204.643C191.298 196.164 199.717 190.274 209.489 190.274C219.261 190.274 227.679 196.164 231.497 204.643C233.71 209.558 237.94 214 243.33 214L255.94 214C261.33 214 265.56 209.558 267.773 204.643C271.591 196.164 280.009 190.274 289.781 190.274C299.553 190.274 307.972 196.164 311.79 204.643C314.003 209.558 318.233 214 323.623 214L336.233 214C341.623 214 345.853 209.558 348.066 204.643C351.884 196.164 360.302 190.274 370.074 190.274C379.846 190.274 388.265 196.164 392.083 204.643C394.296 209.558 398.526 214 403.916 214L410 214C415.523 214 420 209.523 420 204L420 9.99998C420 4.47714 415.523 -1.48674e-05 410 -1.43846e-05L10 2.05845e-05C4.47718 2.10674e-05 1.24617e-05 4.47717 1.29445e-05 10L2.99045e-05 204C3.03873e-05 209.523 4.47718 214 10 214L15.057 214C20.4474 214 24.6776 209.558 26.8906 204.643C30.7079 196.164 39.1267 190.274 48.8987 190.274C58.6707 190.274 67.0894 196.164 70.9067 204.643Z" fill="#587867"/>
</svg>
